<?xml version="1.0" encoding="UTF-8" standalone="no"?>
<!DOCTYPE svg PUBLIC "-//W3C//DTD SVG 1.1//EN" "http://www.w3.org/Graphics/SVG/1.1/DTD/svg11.dtd">
<svg width="100%" height="100%" viewBox="0 0 277 296" version="1.1" xmlns="http://www.w3.org/2000/svg" xmlns:xlink="http://www.w3.org/1999/xlink" xml:space="preserve" style="fill-rule:evenodd;clip-rule:evenodd;stroke-linejoin:round;stroke-miterlimit:1.41421;">
    <g transform="matrix(1,0,0,1,-501.125,-158.223)">
        <g transform="matrix(1.0118,0.0350804,0,1.0118,-30.204,-102.523)">
            <path d="M665.738,234.624C668.738,234.533 671.736,234.528 674.729,234.619C680.247,234.787 685.744,235.27 691.188,236.052C702.852,237.729 714.256,240.786 725.175,244.999C727.711,245.977 730.221,247.017 732.704,248.115C734.155,248.757 735.598,249.416 737.026,250.104C738.469,250.799 739.898,251.523 741.31,252.277C747.217,255.428 752.839,259.091 758.077,263.236C765.489,269.102 772.122,275.934 777.74,283.542C784.445,292.624 789.691,302.795 793.22,313.594C796.107,322.428 797.846,331.672 798.359,341.031C798.959,351.988 797.871,363.093 795.08,373.826C793.881,378.439 792.369,382.98 790.555,387.407C789.874,389.068 789.151,390.713 788.386,392.339C787.422,394.389 786.394,396.412 785.325,398.412C782.953,402.851 780.348,407.171 777.511,411.339C772.91,418.099 767.695,424.452 761.933,430.268C756.063,436.193 749.632,441.554 742.777,446.284C739.526,448.527 736.181,450.628 732.758,452.588C726.12,456.388 719.185,459.644 712.075,462.389C702.467,466.099 692.534,468.874 682.477,470.813C677.624,471.748 672.74,472.49 667.842,473.038C666.403,473.199 664.964,473.343 663.523,473.469C662.626,473.548 661.728,473.615 660.83,473.69C660.519,473.717 660.207,473.745 659.896,473.776C658.965,473.87 658.035,473.981 657.107,474.113C655.361,474.362 653.622,474.681 651.897,475.07C646.54,476.275 641.314,478.15 636.377,480.637C633.763,481.954 631.231,483.441 628.802,485.086C627.404,486.033 626.044,487.035 624.715,488.079L583.688,520.451C583.301,520.708 571.121,530.436 571.121,530.436C571.121,530.436 570.649,515.078 570.597,514.624L569.725,485.666C569.473,476.871 569.166,468.079 568.971,459.28C568.966,459.001 568.963,458.721 568.962,458.441C568.961,457.255 568.999,456.068 569.083,454.882C569.259,452.382 569.628,449.888 570.186,447.431C570.899,444.293 571.92,441.215 573.229,438.256C573.886,436.772 574.618,435.32 575.413,433.901L580.94,424.093C590.402,407.367 599.848,390.633 609.324,373.915C621.262,352.855 633.185,331.786 645.185,310.759C645.302,310.555 645.421,310.352 645.542,310.149C646.342,308.816 647.209,307.524 648.151,306.283C649.946,303.92 651.996,301.748 654.253,299.819C658.044,296.579 662.412,294.037 667.071,292.351C671.729,290.666 676.664,289.841 681.557,289.941C685.077,290.012 688.567,290.56 691.909,291.567C693.631,292.086 695.316,292.721 696.938,293.485C699.307,294.6 701.541,295.984 703.588,297.602C707.162,300.428 710.151,303.967 712.344,307.972C714.712,312.295 716.14,317.141 716.51,322.115C716.751,325.357 716.544,328.647 715.898,331.864C715.36,334.541 714.518,337.165 713.393,339.672C712.857,340.864 712.255,342.026 711.6,343.16L711.481,343.362C704.266,355.532 697.056,367.706 689.835,379.873C679.239,397.727 668.634,415.576 658.027,433.424L658.022,433.432C657.439,434.085 656.965,434.857 656.271,435.391C654.44,436.801 653.635,436.565 651.497,436.76L649.074,435.998L649.057,435.988L647.164,434.322C646.811,433.578 646.308,432.893 646.104,432.091C645.9,431.286 645.844,430.422 645.961,429.589C646.26,427.456 648.248,424.61 649.156,423.035L677.907,373.177C685.008,360.885 692.166,348.625 699.21,336.302C699.306,336.131 699.401,335.959 699.493,335.787C699.857,335.098 700.188,334.395 700.478,333.675C701.088,332.162 701.528,330.587 701.785,328.988C702.132,326.833 702.148,324.637 701.83,322.501C701.468,320.061 700.67,317.703 699.484,315.568C698.316,313.464 696.773,311.581 694.945,310.026C693.713,308.979 692.353,308.082 690.902,307.359C690.223,307.021 689.525,306.725 688.812,306.461C688.804,306.458 688.828,306.467 688.835,306.47C688.837,306.471 688.831,306.468 688.832,306.469C688.838,306.471 688.858,306.479 688.852,306.476C688.399,306.312 687.943,306.158 687.481,306.019C686.72,305.79 685.948,305.601 685.166,305.447C682.841,304.99 680.438,304.879 678.057,305.12C675.356,305.392 672.689,306.115 670.193,307.248C667.735,308.363 665.448,309.874 663.452,311.708C662.106,312.945 660.895,314.327 659.844,315.82C659.316,316.571 658.832,317.351 658.385,318.151L623.186,381.386L595.077,431.692C593.171,435.09 591.231,438.47 589.362,441.887C588.915,442.714 588.499,443.557 588.121,444.416C587.331,446.211 586.701,448.072 586.241,449.968C585.781,451.865 585.49,453.797 585.375,455.733C585.319,456.66 585.306,457.587 585.328,458.513L585.333,458.661L586.12,484.624L586.5,497.804C596.083,490.262 605.648,482.697 615.25,475.179C615.458,475.017 615.667,474.856 615.876,474.695C616.819,473.978 617.773,473.276 618.744,472.597C621.106,470.945 623.549,469.413 626.062,468.009C632.886,464.198 640.217,461.344 647.769,459.56C650.801,458.843 653.868,458.298 656.95,457.929C657.852,457.82 658.756,457.727 659.661,457.649C660.512,457.575 661.365,457.517 662.217,457.449C662.696,457.409 663.174,457.368 663.653,457.325C667.131,457.006 670.602,456.587 674.062,456.058C682.929,454.701 691.722,452.653 700.288,449.832C708.478,447.135 716.462,443.724 724.045,439.531C726.103,438.392 728.132,437.199 730.126,435.947C732.708,434.327 735.231,432.61 737.686,430.798C744.213,425.98 750.248,420.487 755.641,414.418C760.818,408.593 765.396,402.25 769.342,395.55C770.503,393.579 771.61,391.577 772.663,389.548C773.652,387.644 774.594,385.717 775.459,383.756C777.066,380.114 778.429,376.372 779.539,372.565C781.194,366.886 782.287,361.064 782.814,355.21C783.324,349.531 783.302,343.824 782.761,338.184C782.018,330.43 780.294,322.807 777.658,315.542C774.668,307.299 770.505,299.524 765.336,292.501C762.143,288.164 758.571,284.115 754.674,280.405C751.003,276.909 747.045,273.715 742.858,270.849C739.546,268.582 736.091,266.519 732.523,264.667C729.927,263.319 727.267,262.089 724.58,260.925C721.2,259.459 717.764,258.112 714.28,256.894C708.518,254.88 702.623,253.214 696.627,251.948C689.227,250.386 681.677,249.43 674.075,249.139C668.098,248.91 662.091,249.09 656.11,249.69C649.797,250.324 643.516,251.424 637.334,252.983C629.73,254.9 622.278,257.511 615.1,260.765C607.971,263.997 601.113,267.863 594.63,272.295C585.977,278.212 577.993,285.137 570.917,292.891C563.718,300.779 557.458,309.526 552.407,318.906C546.633,329.627 542.452,341.179 540.266,353.062C538.951,360.21 538.361,367.466 538.539,374.68C538.711,381.679 539.607,388.631 541.202,395.398C542.571,401.205 544.451,406.872 546.789,412.329C548.26,415.762 549.913,419.107 551.72,422.365L551.725,422.374C551.977,423.187 552.392,423.962 552.482,424.815C552.719,427.066 552.08,427.652 551.101,429.59C550.444,430.169 549.884,430.887 549.129,431.327C549.129,431.327 549.123,431.33 549.12,431.332L546.661,432.176C544.53,432.05 543.71,432.314 541.934,430.959C540.86,430.139 540.584,429.625 540.09,428.743C540.032,428.641 539.975,428.538 539.918,428.436C539.861,428.334 539.804,428.231 539.748,428.129C539.24,427.211 538.745,426.287 538.261,425.356C535.899,420.813 533.823,416.113 532.064,411.288C530.066,405.807 528.479,400.165 527.334,394.418C526.159,388.519 525.45,382.513 525.218,376.47C524.967,369.907 525.277,363.305 526.131,356.754C526.963,350.368 528.31,344.033 530.134,337.823C532.794,328.765 536.466,319.979 540.998,311.643C550.728,293.746 564.391,277.965 580.536,265.5C590.876,257.517 602.237,250.889 614.229,245.866C623.953,241.793 634.086,238.778 644.39,236.897C648.648,236.119 652.934,235.535 657.231,235.144C659.471,234.941 661.713,234.793 663.955,234.691C664.55,234.666 665.144,234.643 665.738,234.624Z" style="fill-rule:nonzero;"/>
        </g>
    </g>
</svg>
