<?xml version="1.0" encoding="UTF-8" standalone="no"?>
<!DOCTYPE svg PUBLIC "-//W3C//DTD SVG 1.1//EN" "http://www.w3.org/Graphics/SVG/1.1/DTD/svg11.dtd">
<svg width="100%" height="100%" viewBox="0 0 500 588" version="1.1" xmlns="http://www.w3.org/2000/svg" xmlns:xlink="http://www.w3.org/1999/xlink" xml:space="preserve" xmlns:serif="http://www.serif.com/" style="fill-rule:evenodd;clip-rule:evenodd;stroke-linejoin:round;stroke-miterlimit:2;">
    <g transform="matrix(1,0,0,1,-5624.93,-186)">
        <g transform="matrix(4,0,0,1.40845,4370.28,0)">
            <g transform="matrix(0.296875,0,0,0.843125,304.412,72.943)">
                <circle cx="144" cy="182" r="64" style="fill:rgb(255,236,30);"/>
            </g>
        </g>
        <g transform="matrix(4,0,0,1.40845,4370.28,0)">
            <g id="logo" transform="matrix(0.111269,0,0,0.316005,267.022,84.923)">
                <g transform="matrix(1,0,0,1,0,-2284.16)">
                    <path d="M803.197,2995.72L803.461,2995.63C914.111,2960.36 994.346,2856.67 994.346,2734.4C994.346,2583.11 871.522,2460.29 720.237,2460.29C568.951,2460.29 446.127,2583.11 446.127,2734.4C446.127,2844.05 510.658,2938.75 603.778,2982.57C610.51,2985.74 613.404,2993.78 610.236,3000.51C607.068,3007.24 599.03,3010.14 592.298,3006.97C490.027,2958.84 419.165,2854.83 419.165,2734.4C419.165,2568.23 554.071,2433.33 720.237,2433.33C886.403,2433.33 1021.31,2568.23 1021.31,2734.4C1021.31,2868.47 933.479,2982.19 812.255,3021.12C811.958,3021.23 811.655,3021.33 811.349,3021.42C811.111,3021.49 810.873,3021.56 810.77,3021.59C810.183,3021.78 809.594,3021.96 809.159,3022.1C788.58,3028.72 771.357,3042.85 760.708,3061.24C759.85,3062.73 758.718,3064.03 757.372,3065.09L757.371,3065.09L740.708,3043.89L737.373,3047.74C751.333,3023.62 773.923,3005.11 800.902,2996.43L802.662,2995.88L803.197,2995.72Z"/>
                </g>
                <g transform="matrix(1,0,0,1,0,-2284.16)">
                    <path d="M720.055,3077.66L737.432,3047.72C741.168,3041.29 749.425,3039.1 755.859,3042.83C762.294,3046.57 764.485,3054.83 760.749,3061.26C752.888,3074.8 744.495,3089.26 738.755,3099.15C734.873,3105.83 727.72,3109.94 719.989,3109.93C712.258,3109.91 705.122,3105.77 701.268,3099.07C690.776,3080.83 671.364,3047.07 662.79,3032.16C658.824,3025.26 656.736,3017.45 656.736,3009.49C656.736,3009.49 656.736,2613.62 656.736,2613.62C656.736,2578.58 685.19,2550.12 720.237,2550.12C755.284,2550.12 783.738,2578.58 783.738,2613.62C783.738,2613.62 770.257,2613.62 770.257,2613.62L783.738,2613.62L783.738,2897.7C783.738,2905.14 777.697,2911.18 770.257,2911.18C762.817,2911.18 756.776,2905.14 756.776,2897.7L756.776,2613.62C756.776,2593.46 740.403,2577.09 720.237,2577.09C700.07,2577.09 683.698,2593.46 683.697,2613.62C683.697,2613.62 683.697,3009.49 683.697,3009.49C683.697,3012.73 684.547,3015.91 686.163,3018.72L720.055,3077.66Z"/>
                </g>
            </g>
        </g>
        <g transform="matrix(4,0,0,1.40845,4370.28,0)">
            <g transform="matrix(-0.25,0,0,0.71,1243.67,-1113.29)">
                <path d="M3456.69,2121.43C3462.46,2127.22 3466.02,2135.2 3466.02,2144.01C3466.02,2161.67 3451.68,2176.01 3434.02,2176.01C3425.21,2176.01 3417.23,2172.45 3411.44,2166.68L3456.69,2121.43Z" style="fill:rgb(255,236,30);"/>
            </g>
        </g>
        <g transform="matrix(4,0,0,1.40845,4370.28,0)">
            <g transform="matrix(0.25,-1.739e-16,6.12323e-17,0.71,-399.699,159.04)">
                <path d="M3283.45,448L3315.45,448C3333.11,448 3347.45,462.339 3347.45,480L3347.45,512L3283.45,448" style="fill:rgb(255,236,30);"/>
            </g>
        </g>
        <g transform="matrix(4,0,0,1.40845,4370.28,0)">
            <g transform="matrix(0.25,0,0,0.71,-711.699,56.8)">
                <g transform="matrix(1,0,0,1,3.44518,0)">
                    <path d="M4410,496L4410,528C4410,531.311 4412.69,534 4416,534C4419.31,534 4422,531.311 4422,528L4422,496C4422,492.689 4419.31,490 4416,490C4412.69,490 4410,492.689 4410,496Z"/>
                </g>
                <g transform="matrix(1.19123,0,0,1.19123,385.943,-269.856)">
                    <path d="M3359.14,611.012C3341.53,611.012 3327.24,625.306 3327.24,642.912C3327.24,660.518 3341.53,674.812 3359.14,674.812C3376.74,674.812 3391.04,660.518 3391.04,642.912C3391.04,625.306 3376.74,611.012 3359.14,611.012ZM3359.14,621.086C3371.18,621.086 3380.96,630.866 3380.96,642.912C3380.96,654.958 3371.18,664.738 3359.14,664.738C3347.09,664.738 3337.31,654.958 3337.31,642.912C3337.31,630.866 3347.09,621.086 3359.14,621.086Z"/>
                </g>
            </g>
        </g>
        <g transform="matrix(4,0,0,1.40845,4370.28,0)">
            <g transform="matrix(0.25,0,0,0.71,-689.699,147.68)">
                <g transform="matrix(1,0,0,1,3.44518,0)">
                    <path d="M4410,496L4410,528C4410,531.311 4412.69,534 4416,534C4419.31,534 4422,531.311 4422,528L4422,496C4422,492.689 4419.31,490 4416,490C4412.69,490 4410,492.689 4410,496Z"/>
                </g>
                <g transform="matrix(1.19123,0,0,1.19123,385.943,-269.856)">
                    <path d="M3359.14,611.012C3341.53,611.012 3327.24,625.306 3327.24,642.912C3327.24,660.518 3341.53,674.812 3359.14,674.812C3376.74,674.812 3391.04,660.518 3391.04,642.912C3391.04,625.306 3376.74,611.012 3359.14,611.012ZM3359.14,621.086C3371.18,621.086 3380.96,630.866 3380.96,642.912C3380.96,654.958 3371.18,664.738 3359.14,664.738C3347.09,664.738 3337.31,654.958 3337.31,642.912C3337.31,630.866 3347.09,621.086 3359.14,621.086Z"/>
                </g>
                <g transform="matrix(1.19123,0,0,1.19123,385.943,-237.856)">
                    <path d="M3380.96,642.912C3380.96,654.958 3371.18,664.738 3359.14,664.738C3351.23,664.738 3344.3,660.523 3340.47,654.221C3339.03,651.845 3335.92,651.089 3333.55,652.533C3331.17,653.977 3330.42,657.078 3331.86,659.453C3337.46,668.66 3347.59,674.812 3359.14,674.812C3376.74,674.812 3391.04,660.518 3391.04,642.912C3391.04,640.132 3388.78,637.875 3386,637.875C3383.22,637.875 3380.96,640.132 3380.96,642.912Z"/>
                </g>
            </g>
        </g>
        <g transform="matrix(4,0,0,1.40845,4370.28,0)">
            <g transform="matrix(-0.25,0,0,0.71,1436.02,147.68)">
                <g transform="matrix(1.19123,0,0,1.19123,385.943,-269.856)">
                    <path d="M3359.14,611.012C3376.74,611.012 3391.04,625.306 3391.04,642.912C3391.04,660.518 3376.74,674.812 3359.14,674.812C3341.53,674.812 3327.24,660.518 3327.24,642.912C3327.24,625.306 3341.53,611.012 3359.14,611.012ZM3359.14,621.086C3347.09,621.086 3337.31,630.866 3337.31,642.912C3337.31,654.958 3347.09,664.738 3359.14,664.738C3371.18,664.738 3380.96,654.958 3380.96,642.912C3380.96,630.866 3371.18,621.086 3359.14,621.086Z"/>
                </g>
                <g transform="matrix(1,0,0,0.666667,1136,154.667)">
                    <path d="M3225.45,416L3225.45,512C3225.45,516.967 3222.76,521 3219.45,521C3216.13,521 3213.45,516.967 3213.45,512L3213.45,416C3213.45,411.033 3216.13,407 3219.45,407C3222.76,407 3225.45,411.033 3225.45,416Z"/>
                </g>
            </g>
        </g>
        <g transform="matrix(4,0,0,1.40845,4370.28,0)">
            <g transform="matrix(0.25,0,0,0.473333,-411.699,280.213)">
                <path d="M3213.45,416L3213.45,512C3213.45,516.967 3216.13,521 3219.45,521C3222.76,521 3225.45,516.967 3225.45,512L3225.45,416C3225.45,411.033 3222.76,407 3219.45,407C3216.13,407 3213.45,411.033 3213.45,416Z"/>
            </g>
        </g>
        <g transform="matrix(4,0,0,1.40845,4370.28,0)">
            <g transform="matrix(1,0,0,1,-113.7,-25.56)">
                <g transform="matrix(0.25,0,0,0.473333,-343.999,214.893)">
                    <path d="M3213.45,416L3213.45,512C3213.45,516.967 3216.13,521 3219.45,521C3222.76,521 3225.45,516.967 3225.45,512L3225.45,416C3225.45,411.033 3222.76,407 3219.45,407C3216.13,407 3213.45,411.033 3213.45,416Z"/>
                </g>
                <g transform="matrix(0.25,0,0,0.00739583,-343.999,386.003)">
                    <path d="M3213.45,416L3213.45,512C3213.45,829.903 3216.13,1088 3219.45,1088C3222.76,1088 3225.45,829.903 3225.45,512L3225.45,416C3225.45,98.097 3222.76,-160 3219.45,-160C3216.13,-160 3213.45,98.097 3213.45,416Z"/>
                </g>
            </g>
        </g>
        <g transform="matrix(4,0,0,1.40845,4370.28,0)">
            <g transform="matrix(0.25,0,0,0.71,-685.699,-68.16)">
                <g transform="matrix(0.5,0,0,0.5,2537.72,416)">
                    <path d="M3315.45,500C3304.41,500 3295.45,491.038 3295.45,480C3295.45,468.962 3304.41,460 3315.45,460C3315.45,460 3379.45,460 3379.45,460C3386.07,460 3391.45,454.623 3391.45,448C3391.45,441.377 3386.07,436 3379.45,436L3315.45,436C3291.16,436 3271.45,455.716 3271.45,480C3271.45,504.284 3291.16,524 3315.45,524C3322.07,524 3327.45,518.623 3327.45,512C3327.45,505.377 3322.07,500 3315.45,500Z"/>
                </g>
                <g transform="matrix(-0.5,-6.12323e-17,6.12323e-17,-0.5,5873.17,928)">
                    <path d="M3315.45,500C3304.41,500 3295.45,491.038 3295.45,480C3295.45,468.962 3304.41,460 3315.45,460C3315.45,460 3379.45,460 3379.45,460C3386.07,460 3391.45,454.623 3391.45,448C3391.45,441.377 3386.07,436 3379.45,436L3315.45,436C3291.16,436 3271.45,455.716 3271.45,480C3271.45,504.284 3291.16,524 3315.45,524C3322.07,524 3327.45,518.623 3327.45,512C3327.45,505.377 3322.07,500 3315.45,500Z"/>
                </g>
                <g transform="matrix(1,0,0,1,2978.9,223.388)">
                    <path d="M1216.54,454.612L1236.54,454.612C1239.86,454.612 1242.54,451.924 1242.54,448.612C1242.54,445.301 1239.86,442.612 1236.54,442.612L1216.54,442.612C1213.23,442.612 1210.54,445.301 1210.54,448.612C1210.54,451.924 1213.23,454.612 1216.54,454.612Z"/>
                </g>
            </g>
        </g>
        <g transform="matrix(4,0,0,1.40845,4370.28,0)">
            <g transform="matrix(0.25,0,0,0.71,-670.699,22.72)">
                <g transform="matrix(0.5,0,0,0.5,2537.72,416)">
                    <path d="M3315.45,500C3304.41,500 3295.45,491.038 3295.45,480C3295.45,468.962 3304.41,460 3315.45,460L3379.45,460C3386.07,460 3391.45,454.623 3391.45,448C3391.45,441.377 3386.07,436 3379.45,436L3315.45,436C3291.16,436 3271.45,455.716 3271.45,480C3271.45,504.284 3291.16,524 3315.45,524C3322.07,524 3327.45,518.623 3327.45,512C3327.45,505.377 3322.07,500 3315.45,500Z"/>
                </g>
                <g transform="matrix(-0.5,-6.12323e-17,6.12323e-17,-0.5,5873.17,928)">
                    <path d="M3315.45,500C3304.41,500 3295.45,491.038 3295.45,480C3295.45,468.962 3304.41,460 3315.45,460C3315.45,460 3379.45,460 3379.45,460C3386.07,460 3391.45,454.623 3391.45,448C3391.45,441.377 3386.07,436 3379.45,436L3315.45,436C3291.16,436 3271.45,455.716 3271.45,480C3271.45,504.284 3291.16,524 3315.45,524C3322.07,524 3327.45,518.623 3327.45,512C3327.45,505.377 3322.07,500 3315.45,500Z"/>
                </g>
                <g transform="matrix(1,0,0,1,2978.9,223.388)">
                    <path d="M1216.54,454.612L1236.54,454.612C1239.86,454.612 1242.54,451.924 1242.54,448.612C1242.54,445.301 1239.86,442.612 1236.54,442.612L1216.54,442.612C1213.23,442.612 1210.54,445.301 1210.54,448.612C1210.54,451.924 1213.23,454.612 1216.54,454.612Z"/>
                </g>
            </g>
        </g>
        <g transform="matrix(4,0,0,1.40845,4370.28,0)">
            <g transform="matrix(0.25,0,0,0.71,-697.699,238.56)">
                <g transform="matrix(1,0,0,1,920,-112)">
                    <path d="M3315.45,506C3301.1,506 3289.45,494.35 3289.45,480C3289.45,465.65 3301.1,454 3315.45,454C3329.8,454 3341.45,465.65 3341.45,480C3341.45,483.311 3344.13,486 3347.45,486C3350.76,486 3353.45,483.311 3353.45,480C3353.45,459.027 3336.42,442 3315.45,442C3294.47,442 3277.45,459.027 3277.45,480C3277.45,500.973 3294.47,518 3315.45,518C3318.76,518 3321.45,515.311 3321.45,512C3321.45,508.689 3318.76,506 3315.45,506Z"/>
                </g>
                <g transform="matrix(1,0,0,1,3.44518,0)">
                    <path d="M4232,406L4264,406C4267.31,406 4270,403.311 4270,400C4270,396.689 4267.31,394 4264,394L4232,394C4228.69,394 4226,396.689 4226,400C4226,403.311 4228.69,406 4232,406Z"/>
                </g>
                <g transform="matrix(1,0,0,1,91.4452,0)">
                    <path d="M4112,374L4176,374C4179.31,374 4182,371.311 4182,368C4182,364.689 4179.31,362 4176,362L4112,362C4108.69,362 4106,364.689 4106,368C4106,371.311 4108.69,374 4112,374Z"/>
                </g>
            </g>
        </g>
        <g transform="matrix(4,0,0,1.40845,4370.28,0)">
            <g transform="matrix(0.25,-1.739e-16,6.12323e-17,0.71,-607.699,238.56)">
                <g transform="matrix(1,0,0,1,832,-112)">
                    <path d="M3283.45,454L3315.45,454C3329.8,454 3341.45,465.65 3341.45,480C3341.45,483.311 3344.13,486 3347.45,486C3350.76,486 3353.45,483.311 3353.45,480C3353.45,459.027 3336.42,442 3315.45,442C3315.45,442 3283.45,442 3283.45,442C3280.13,442 3277.45,444.689 3277.45,448C3277.45,451.311 3280.13,454 3283.45,454Z"/>
                </g>
                <g transform="matrix(1,0,0,1,3.44518,0)">
                    <path d="M4170,368L4170,400C4170,403.311 4172.69,406 4176,406C4179.31,406 4182,403.311 4182,400L4182,368C4182,364.689 4179.31,362 4176,362C4172.69,362 4170,364.689 4170,368Z"/>
                </g>
                <g transform="matrix(1,0,0,2,3.44518,-400)">
                    <path d="M4106,368L4106,400C4106,401.656 4108.69,403 4112,403C4115.31,403 4118,401.656 4118,400L4118,368C4118,366.344 4115.31,365 4112,365C4108.69,365 4106,366.344 4106,368Z"/>
                </g>
            </g>
        </g>
        <g transform="matrix(4,0,0,1.40845,4370.28,0)">
            <g transform="matrix(1,0,0,1,65.1621,-261.28)">
                <g transform="matrix(-0.25,8.69499e-17,-3.06162e-17,-0.71,1378.86,931.52)">
                    <g transform="matrix(1,0,0,1,832,-112)">
                        <path d="M3283.45,454L3315.45,454C3329.8,454 3341.45,465.65 3341.45,480C3341.45,483.311 3344.13,486 3347.45,486C3350.76,486 3353.45,483.311 3353.45,480C3353.45,459.027 3336.42,442 3315.45,442L3283.45,442C3280.13,442 3277.45,444.689 3277.45,448C3277.45,451.311 3280.13,454 3283.45,454Z"/>
                    </g>
                    <g transform="matrix(1,0,0,1,3.44518,0)">
                        <path d="M4170,368L4170,400C4170,403.311 4172.69,406 4176,406C4179.31,406 4182,403.311 4182,400L4182,368C4182,364.689 4179.31,362 4176,362C4172.69,362 4170,364.689 4170,368Z"/>
                    </g>
                    <g transform="matrix(1,0,0,2,3.44518,-400)">
                        <path d="M4106,368L4106,400C4106,401.656 4108.69,403 4112,403C4115.31,403 4118,401.656 4118,400L4118,368C4118,366.344 4115.31,365 4112,365C4108.69,365 4106,366.344 4106,368Z"/>
                    </g>
                </g>
                <g transform="matrix(0.297807,0,0,0.845773,-658.375,149.203)">
                    <path d="M3380.96,642.912C3380.96,654.958 3371.18,664.738 3359.14,664.738C3359.14,664.738 3332.27,664.738 3332.27,664.738C3329.49,664.738 3327.24,666.995 3327.24,669.775C3327.24,672.555 3329.49,674.812 3332.27,674.812L3359.14,674.812C3376.74,674.812 3391.04,660.518 3391.04,642.912C3391.04,640.132 3388.78,637.875 3386,637.875C3383.22,637.875 3380.96,640.132 3380.96,642.912Z"/>
                </g>
            </g>
        </g>
    </g>
</svg>
